<?xml version="1.0" encoding="utf-8"?>
<!-- Generator: Adobe Illustrator 24.3.0, SVG Export Plug-In . SVG Version: 6.00 Build 0)  -->
<svg version="1.1" id="Layer_1" xmlns="http://www.w3.org/2000/svg" xmlns:xlink="http://www.w3.org/1999/xlink" x="0px" y="0px"
	 viewBox="0 0 595.28 841.89" style="enable-background:new 0 0 595.28 841.89;" xml:space="preserve">
<style type="text/css">
	.st0{fill-rule:evenodd;clip-rule:evenodd;fill:#F99E23;}
	.st1{fill-rule:evenodd;clip-rule:evenodd;fill:#071827;}
	.st2{fill-rule:evenodd;clip-rule:evenodd;fill:#FEFEFC;stroke:#000000;stroke-miterlimit:10;}
	.st3{fill-rule:evenodd;clip-rule:evenodd;fill:#3DBEB3;}
	.st4{font-family:'MyriadPro-Regular';}
	.st5{font-size:12px;}
	.st6{fill:#071827;}
	.st7{font-family:'AvenirLTStd-Light';}
	.st8{font-size:21px;}
	.st9{fill:#F99E23;}
	.st10{font-size:14px;}
	.st11{font-family:'AvenirLTStd-Heavy';}
	.st12{font-family:'AvenirLTStd-Medium';}
	.st13{font-family:'Ubuntu-Medium';}
	.st14{fill:#3DBEB3;}
	.st15{font-family:'Ubuntu-Light';}
</style>
<rect x="215.21" y="144.07" class="st0" width="42.95" height="42.95"/>
<rect x="215.21" y="226.81" class="st1" width="42.95" height="42.95"/>
<rect x="301.74" y="144.07" class="st2" width="42.95" height="42.95"/>
<rect x="301.74" y="226.81" class="st3" width="42.95" height="42.95"/>
<text transform="matrix(1 0 0 1 301.0742 198.2828)" class="st4 st5">#FDFFFC</text>
<text transform="matrix(1 0 0 1 215.3022 198.2828)" class="st4 st5">#FF9F1C</text>
<text transform="matrix(1 0 0 1 301.3208 281.4195)" class="st4 st5">#2EC4B6</text>
<text transform="matrix(1 0 0 1 215.2368 281.4195)" class="st4 st5">#011627</text>
<text transform="matrix(1 0 0 1 94.0226 45.6259)" class="st6 st7 st8">Charte graphique: Portfolio de Erik Shea</text>
<text transform="matrix(1 0 0 1 118.4319 445.7102)"><tspan x="0" y="0" class="st9 st7 st10">Prénom + nom: </tspan><tspan x="100.42" y="0" class="st6 st11 st10">Avenir LT Std, Heavy</tspan></text>
<text transform="matrix(1 0 0 1 177.3509 470.5128)"><tspan x="0" y="0" class="st9 st7 st10">Titres: </tspan><tspan x="41.75" y="0" class="st6 st12 st10">Avenir LT Std, Medium</tspan></text>
<text transform="matrix(1 0 0 1 169.9899 371.3769)"><tspan x="0" y="0" class="st9 st7 st10">Menus: </tspan><tspan x="49.04" y="0" class="st6 st13 st10">Ubuntu, Medium</tspan></text>
<text transform="matrix(1 0 0 1 61.9076 395.3771)"><tspan x="0" y="0" class="st9 st7 st10">Menus (</tspan><tspan x="49.04" y="0" class="st14 st7 st10">sous-catégories</tspan><tspan x="146.82" y="0" class="st9 st7 st10">): </tspan><tspan x="157.74" y="0" class="st6 st15 st10">Ubuntu, Light</tspan></text>
<text transform="matrix(1 0 0 1 135.5155 419.6835)"><tspan x="0" y="0" class="st9 st7 st10">Paragraphes: </tspan><tspan x="85.08" y="0" class="st6 st15 st10">Ubuntu, Light</tspan></text>
</svg>
